# xmcd
#
# Track frame offsets: 
#        150
#        9170
#        22297
#        37930
#        43632
#        60547
#        69710
#        81352
#        100385
#        103205
#        110162
#        149430
#        166080
#        180300
#        189095
#        211090
#        234942
#
# Disc length: 3252 seconds
#
# Revision: 8
# Processed by: cddbd v1.5.2PL0 Copyright (c) Steve Scherf et al.
# Submitted via: ExactAudioCopy v0.99pb5
#
DISCID=de0cb211
DTITLE=Trevor Rabin And Harry Gregson-Williams - Enemy Of The State
DYEAR=1998
DGENRE=Soundtrack
TTITLE0=Main Titles
TTITLE1=Enemy Of The State Main Theme
TTITLE2=Brill's Theme
TTITLE3=The Ferry
TTITLE4=Hotel Chase Part 2
TTITLE5=Zavitz Chase Part 1
TTITLE6=NSA Research
TTITLE7=Brill And Dean Meet
TTITLE8=Free Ferry
TTITLE9=Nanny Drive
TTITLE10=Final Confrontation
TTITLE11=Coal Yard Part 1
TTITLE12=Face To Face
TTITLE13=The Tunnel Part 1
TTITLE14=Coal Yard Part 2
TTITLE15=Rachel's Found Dead
TTITLE16=Wish You Were Here
EXTD=YEAR: 1998 ID3G: 24
EXTT0=
EXTT1=
EXTT2=
EXTT3=
EXTT4=
EXTT5=
EXTT6=
EXTT7=
EXTT8=
EXTT9=
EXTT10=
EXTT11=
EXTT12=
EXTT13=
EXTT14=
EXTT15=
EXTT16=
PLAYORDER=
